<svg width="1440" height="757" viewBox="0 0 1440 757" fill="none" xmlns="http://www.w3.org/2000/svg">
<rect width="1440" height="583" fill="#FF971D"/>
<mask id="mask0_1_518" style="mask-type:alpha" maskUnits="userSpaceOnUse" x="-28" y="181" width="585" height="613">
<rect x="557" y="794" width="585" height="613" transform="rotate(180 557 794)" fill="#C4C4C4"/>
</mask>
<g mask="url(#mask0_1_518)">
<circle cx="399.5" cy="595.5" r="3.5" transform="rotate(180 399.5 595.5)" fill="#F5F6F8" fill-opacity="0.6"/>
<circle cx="399.5" cy="578.5" r="3.5" transform="rotate(180 399.5 578.5)" fill="#F5F6F8" fill-opacity="0.6"/>
<circle cx="399.5" cy="561.5" r="3.5" transform="rotate(180 399.5 561.5)" fill="#F5F6F8" fill-opacity="0.6"/>
<circle cx="399.5" cy="544.5" r="3.5" transform="rotate(180 399.5 544.5)" fill="#F5F6F8" fill-opacity="0.6"/>
<circle cx="399.5" cy="527.5" r="3.5" transform="rotate(180 399.5 527.5)" fill="#F5F6F8" fill-opacity="0.6"/>
<circle cx="399.5" cy="510.5" r="3.5" transform="rotate(180 399.5 510.5)" fill="#F5F6F8" fill-opacity="0.6"/>
<circle cx="382.5" cy="595.5" r="3.5" transform="rotate(180 382.5 595.5)" fill="#F5F6F8" fill-opacity="0.6"/>
<circle cx="382.5" cy="578.5" r="3.5" transform="rotate(180 382.5 578.5)" fill="#F5F6F8" fill-opacity="0.6"/>
<circle cx="382.5" cy="561.5" r="3.5" transform="rotate(180 382.5 561.5)" fill="#F5F6F8" fill-opacity="0.6"/>
<circle cx="382.5" cy="544.5" r="3.5" transform="rotate(180 382.5 544.5)" fill="#F5F6F8" fill-opacity="0.6"/>
<circle cx="382.5" cy="527.5" r="3.5" transform="rotate(180 382.5 527.5)" fill="#F5F6F8" fill-opacity="0.6"/>
<circle cx="382.5" cy="510.5" r="3.5" transform="rotate(180 382.5 510.5)" fill="#F5F6F8" fill-opacity="0.6"/>
<circle cx="365.5" cy="595.5" r="3.5" transform="rotate(180 365.5 595.5)" fill="#F5F6F8" fill-opacity="0.6"/>
<circle cx="365.5" cy="578.5" r="3.5" transform="rotate(180 365.5 578.5)" fill="#F5F6F8" fill-opacity="0.6"/>
<circle cx="365.5" cy="561.5" r="3.5" transform="rotate(180 365.5 561.5)" fill="#F5F6F8" fill-opacity="0.6"/>
<circle cx="365.5" cy="544.5" r="3.5" transform="rotate(180 365.5 544.5)" fill="#F5F6F8" fill-opacity="0.6"/>
<circle cx="365.5" cy="527.5" r="3.5" transform="rotate(180 365.5 527.5)" fill="#F5F6F8" fill-opacity="0.6"/>
<circle cx="365.5" cy="510.5" r="3.5" transform="rotate(180 365.5 510.5)" fill="#F5F6F8" fill-opacity="0.6"/>
<circle cx="348.5" cy="595.5" r="3.5" transform="rotate(180 348.5 595.5)" fill="#F5F6F8" fill-opacity="0.6"/>
<circle cx="348.5" cy="578.5" r="3.5" transform="rotate(180 348.5 578.5)" fill="#F5F6F8" fill-opacity="0.6"/>
<circle cx="348.5" cy="561.5" r="3.5" transform="rotate(180 348.5 561.5)" fill="#F5F6F8" fill-opacity="0.6"/>
<circle cx="348.5" cy="544.5" r="3.5" transform="rotate(180 348.5 544.5)" fill="#F5F6F8" fill-opacity="0.6"/>
<circle cx="348.5" cy="527.5" r="3.5" transform="rotate(180 348.5 527.5)" fill="#F5F6F8" fill-opacity="0.6"/>
<circle cx="348.5" cy="510.5" r="3.5" transform="rotate(180 348.5 510.5)" fill="#F5F6F8" fill-opacity="0.6"/>
<circle cx="331.5" cy="595.5" r="3.5" transform="rotate(180 331.5 595.5)" fill="#F5F6F8" fill-opacity="0.6"/>
<circle cx="331.5" cy="578.5" r="3.5" transform="rotate(180 331.5 578.5)" fill="#F5F6F8" fill-opacity="0.6"/>
<circle cx="331.5" cy="561.5" r="3.5" transform="rotate(180 331.5 561.5)" fill="#F5F6F8" fill-opacity="0.6"/>
<circle cx="331.5" cy="544.5" r="3.5" transform="rotate(180 331.5 544.5)" fill="#F5F6F8" fill-opacity="0.6"/>
<circle cx="331.5" cy="527.5" r="3.5" transform="rotate(180 331.5 527.5)" fill="#F5F6F8" fill-opacity="0.6"/>
<circle cx="331.5" cy="510.5" r="3.5" transform="rotate(180 331.5 510.5)" fill="#F5F6F8" fill-opacity="0.6"/>
<circle cx="314.5" cy="595.5" r="3.5" transform="rotate(180 314.5 595.5)" fill="#F5F6F8" fill-opacity="0.6"/>
<circle cx="314.5" cy="578.5" r="3.5" transform="rotate(180 314.5 578.5)" fill="#F5F6F8" fill-opacity="0.6"/>
<circle cx="314.5" cy="561.5" r="3.5" transform="rotate(180 314.5 561.5)" fill="#F5F6F8" fill-opacity="0.6"/>
<circle cx="314.5" cy="544.5" r="3.5" transform="rotate(180 314.5 544.5)" fill="#F5F6F8" fill-opacity="0.6"/>
<circle cx="314.5" cy="527.5" r="3.5" transform="rotate(180 314.5 527.5)" fill="#F5F6F8" fill-opacity="0.6"/>
<circle cx="314.5" cy="510.5" r="3.5" transform="rotate(180 314.5 510.5)" fill="#F5F6F8" fill-opacity="0.6"/>
<circle cx="297.5" cy="595.5" r="3.5" transform="rotate(180 297.5 595.5)" fill="#F5F6F8" fill-opacity="0.6"/>
<circle cx="297.5" cy="578.5" r="3.5" transform="rotate(180 297.5 578.5)" fill="#F5F6F8" fill-opacity="0.6"/>
<circle cx="297.5" cy="561.5" r="3.5" transform="rotate(180 297.5 561.5)" fill="#F5F6F8" fill-opacity="0.6"/>
<circle cx="297.5" cy="544.5" r="3.5" transform="rotate(180 297.5 544.5)" fill="#F5F6F8" fill-opacity="0.6"/>
<circle cx="297.5" cy="527.5" r="3.5" transform="rotate(180 297.5 527.5)" fill="#F5F6F8" fill-opacity="0.6"/>
<circle cx="297.5" cy="510.5" r="3.5" transform="rotate(180 297.5 510.5)" fill="#F5F6F8" fill-opacity="0.6"/>
<circle cx="84.4999" cy="269.5" r="3.5" transform="rotate(180 84.4999 269.5)" fill="#F5F6F8" fill-opacity="0.6"/>
<circle cx="84.4999" cy="252.5" r="3.5" transform="rotate(180 84.4999 252.5)" fill="#F5F6F8" fill-opacity="0.6"/>
<circle cx="84.4999" cy="235.5" r="3.5" transform="rotate(180 84.4999 235.5)" fill="#F5F6F8" fill-opacity="0.6"/>
<circle cx="84.4999" cy="218.5" r="3.5" transform="rotate(180 84.4999 218.5)" fill="#F5F6F8" fill-opacity="0.6"/>
<circle cx="84.4999" cy="201.5" r="3.5" transform="rotate(180 84.4999 201.5)" fill="#F5F6F8" fill-opacity="0.6"/>
<circle cx="84.4999" cy="184.5" r="3.5" transform="rotate(180 84.4999 184.5)" fill="#F5F6F8" fill-opacity="0.6"/>
<circle cx="67.4999" cy="269.5" r="3.5" transform="rotate(180 67.4999 269.5)" fill="#F5F6F8" fill-opacity="0.6"/>
<circle cx="67.4999" cy="252.5" r="3.5" transform="rotate(180 67.4999 252.5)" fill="#F5F6F8" fill-opacity="0.6"/>
<circle cx="67.4999" cy="235.5" r="3.5" transform="rotate(180 67.4999 235.5)" fill="#F5F6F8" fill-opacity="0.6"/>
<circle cx="67.4999" cy="218.5" r="3.5" transform="rotate(180 67.4999 218.5)" fill="#F5F6F8" fill-opacity="0.6"/>
<circle cx="67.4999" cy="201.5" r="3.5" transform="rotate(180 67.4999 201.5)" fill="#F5F6F8" fill-opacity="0.6"/>
<circle cx="67.4999" cy="184.5" r="3.5" transform="rotate(180 67.4999 184.5)" fill="#F5F6F8" fill-opacity="0.6"/>
<circle cx="50.4999" cy="269.5" r="3.5" transform="rotate(180 50.4999 269.5)" fill="#F5F6F8" fill-opacity="0.6"/>
<circle cx="50.4999" cy="252.5" r="3.5" transform="rotate(180 50.4999 252.5)" fill="#F5F6F8" fill-opacity="0.6"/>
<circle cx="50.4999" cy="235.5" r="3.5" transform="rotate(180 50.4999 235.5)" fill="#F5F6F8" fill-opacity="0.6"/>
<circle cx="50.4999" cy="218.5" r="3.5" transform="rotate(180 50.4999 218.5)" fill="#F5F6F8" fill-opacity="0.6"/>
<circle cx="50.4999" cy="201.5" r="3.5" transform="rotate(180 50.4999 201.5)" fill="#F5F6F8" fill-opacity="0.6"/>
<circle cx="50.4999" cy="184.5" r="3.5" transform="rotate(180 50.4999 184.5)" fill="#F5F6F8" fill-opacity="0.6"/>
<circle cx="33.4999" cy="269.5" r="3.5" transform="rotate(180 33.4999 269.5)" fill="#F5F6F8" fill-opacity="0.6"/>
<circle cx="33.4999" cy="252.5" r="3.5" transform="rotate(180 33.4999 252.5)" fill="#F5F6F8" fill-opacity="0.6"/>
<circle cx="33.4999" cy="235.5" r="3.5" transform="rotate(180 33.4999 235.5)" fill="#F5F6F8" fill-opacity="0.6"/>
<circle cx="33.4999" cy="218.5" r="3.5" transform="rotate(180 33.4999 218.5)" fill="#F5F6F8" fill-opacity="0.6"/>
<circle cx="33.4999" cy="201.5" r="3.5" transform="rotate(180 33.4999 201.5)" fill="#F5F6F8" fill-opacity="0.6"/>
<circle cx="33.4999" cy="184.5" r="3.5" transform="rotate(180 33.4999 184.5)" fill="#F5F6F8" fill-opacity="0.6"/>
<circle cx="16.4999" cy="269.5" r="3.5" transform="rotate(180 16.4999 269.5)" fill="#F5F6F8" fill-opacity="0.6"/>
<circle cx="16.4999" cy="252.5" r="3.5" transform="rotate(180 16.4999 252.5)" fill="#F5F6F8" fill-opacity="0.6"/>
<circle cx="16.4999" cy="235.5" r="3.5" transform="rotate(180 16.4999 235.5)" fill="#F5F6F8" fill-opacity="0.6"/>
<circle cx="16.4999" cy="218.5" r="3.5" transform="rotate(180 16.4999 218.5)" fill="#F5F6F8" fill-opacity="0.6"/>
<circle cx="16.4999" cy="201.5" r="3.5" transform="rotate(180 16.4999 201.5)" fill="#F5F6F8" fill-opacity="0.6"/>
<circle cx="16.4999" cy="184.5" r="3.5" transform="rotate(180 16.4999 184.5)" fill="#F5F6F8" fill-opacity="0.6"/>
<circle cx="-0.500061" cy="269.5" r="3.5" transform="rotate(180 -0.500061 269.5)" fill="#F5F6F8" fill-opacity="0.6"/>
<circle cx="-0.500061" cy="252.5" r="3.5" transform="rotate(180 -0.500061 252.5)" fill="#F5F6F8" fill-opacity="0.6"/>
<circle cx="-0.500061" cy="235.5" r="3.5" transform="rotate(180 -0.500061 235.5)" fill="#F5F6F8" fill-opacity="0.6"/>
<circle cx="-0.500061" cy="218.5" r="3.5" transform="rotate(180 -0.500061 218.5)" fill="#F5F6F8" fill-opacity="0.6"/>
<circle cx="-0.500061" cy="201.5" r="3.5" transform="rotate(180 -0.500061 201.5)" fill="#F5F6F8" fill-opacity="0.6"/>
<circle cx="-0.500061" cy="184.5" r="3.5" transform="rotate(180 -0.500061 184.5)" fill="#F5F6F8" fill-opacity="0.6"/>
<circle cx="-140" cy="507" r="237.5" transform="rotate(180 -140 507)" stroke="#F5F6F8" stroke-opacity="0.3" stroke-width="25"/>
</g>
<mask id="mask1_1_518" style="mask-type:alpha" maskUnits="userSpaceOnUse" x="855" y="-2" width="585" height="613">
<rect x="855" y="-2" width="585" height="613" fill="#C4C4C4"/>
</mask>
<g mask="url(#mask1_1_518)">
<circle cx="1099.5" cy="3.5" r="3.5" fill="#F5F6F8" fill-opacity="0.6"/>
<circle cx="1099.5" cy="20.5" r="3.5" fill="#F5F6F8" fill-opacity="0.6"/>
<circle cx="1099.5" cy="37.5" r="3.5" fill="#F5F6F8" fill-opacity="0.6"/>
<circle cx="1099.5" cy="54.5" r="3.5" fill="#F5F6F8" fill-opacity="0.6"/>
<circle cx="1099.5" cy="71.5" r="3.5" fill="#F5F6F8" fill-opacity="0.6"/>
<circle cx="1099.5" cy="88.5" r="3.5" fill="#F5F6F8" fill-opacity="0.6"/>
<circle cx="1116.5" cy="3.5" r="3.5" fill="#F5F6F8" fill-opacity="0.6"/>
<circle cx="1116.5" cy="20.5" r="3.5" fill="#F5F6F8" fill-opacity="0.6"/>
<circle cx="1116.5" cy="37.5" r="3.5" fill="#F5F6F8" fill-opacity="0.6"/>
<circle cx="1116.5" cy="54.5" r="3.5" fill="#F5F6F8" fill-opacity="0.6"/>
<circle cx="1116.5" cy="71.5" r="3.5" fill="#F5F6F8" fill-opacity="0.6"/>
<circle cx="1116.5" cy="88.5" r="3.5" fill="#F5F6F8" fill-opacity="0.6"/>
<circle cx="1133.5" cy="3.5" r="3.5" fill="#F5F6F8" fill-opacity="0.6"/>
<circle cx="1133.5" cy="20.5" r="3.5" fill="#F5F6F8" fill-opacity="0.6"/>
<circle cx="1133.5" cy="37.5" r="3.5" fill="#F5F6F8" fill-opacity="0.6"/>
<circle cx="1133.5" cy="54.5" r="3.5" fill="#F5F6F8" fill-opacity="0.6"/>
<circle cx="1133.5" cy="71.5" r="3.5" fill="#F5F6F8" fill-opacity="0.6"/>
<circle cx="1133.5" cy="88.5" r="3.5" fill="#F5F6F8" fill-opacity="0.6"/>
<circle cx="1150.5" cy="3.5" r="3.5" fill="#F5F6F8" fill-opacity="0.6"/>
<circle cx="1150.5" cy="20.5" r="3.5" fill="#F5F6F8" fill-opacity="0.6"/>
<circle cx="1150.5" cy="37.5" r="3.5" fill="#F5F6F8" fill-opacity="0.6"/>
<circle cx="1150.5" cy="54.5" r="3.5" fill="#F5F6F8" fill-opacity="0.6"/>
<circle cx="1150.5" cy="71.5" r="3.5" fill="#F5F6F8" fill-opacity="0.6"/>
<circle cx="1150.5" cy="88.5" r="3.5" fill="#F5F6F8" fill-opacity="0.6"/>
<circle cx="1167.5" cy="3.5" r="3.5" fill="#F5F6F8" fill-opacity="0.6"/>
<circle cx="1167.5" cy="20.5" r="3.5" fill="#F5F6F8" fill-opacity="0.6"/>
<circle cx="1167.5" cy="37.5" r="3.5" fill="#F5F6F8" fill-opacity="0.6"/>
<circle cx="1167.5" cy="54.5" r="3.5" fill="#F5F6F8" fill-opacity="0.6"/>
<circle cx="1167.5" cy="71.5" r="3.5" fill="#F5F6F8" fill-opacity="0.6"/>
<circle cx="1167.5" cy="88.5" r="3.5" fill="#F5F6F8" fill-opacity="0.6"/>
<circle cx="1184.5" cy="3.5" r="3.5" fill="#F5F6F8" fill-opacity="0.6"/>
<circle cx="1184.5" cy="20.5" r="3.5" fill="#F5F6F8" fill-opacity="0.6"/>
<circle cx="1184.5" cy="37.5" r="3.5" fill="#F5F6F8" fill-opacity="0.6"/>
<circle cx="1184.5" cy="54.5" r="3.5" fill="#F5F6F8" fill-opacity="0.6"/>
<circle cx="1184.5" cy="71.5" r="3.5" fill="#F5F6F8" fill-opacity="0.6"/>
<circle cx="1184.5" cy="88.5" r="3.5" fill="#F5F6F8" fill-opacity="0.6"/>
<circle cx="1201.5" cy="3.5" r="3.5" fill="#F5F6F8" fill-opacity="0.6"/>
<circle cx="1201.5" cy="20.5" r="3.5" fill="#F5F6F8" fill-opacity="0.6"/>
<circle cx="1201.5" cy="37.5" r="3.5" fill="#F5F6F8" fill-opacity="0.6"/>
<circle cx="1201.5" cy="54.5" r="3.5" fill="#F5F6F8" fill-opacity="0.6"/>
<circle cx="1201.5" cy="71.5" r="3.5" fill="#F5F6F8" fill-opacity="0.6"/>
<circle cx="1201.5" cy="88.5" r="3.5" fill="#F5F6F8" fill-opacity="0.6"/>
<circle cx="1327.5" cy="522.5" r="3.5" fill="#F5F6F8" fill-opacity="0.6"/>
<circle cx="1327.5" cy="539.5" r="3.5" fill="#F5F6F8" fill-opacity="0.6"/>
<circle cx="1327.5" cy="556.5" r="3.5" fill="#F5F6F8" fill-opacity="0.6"/>
<circle cx="1327.5" cy="573.5" r="3.5" fill="#F5F6F8" fill-opacity="0.6"/>
<circle cx="1327.5" cy="590.5" r="3.5" fill="#F5F6F8" fill-opacity="0.6"/>
<circle cx="1327.5" cy="607.5" r="3.5" fill="#F5F6F8" fill-opacity="0.6"/>
<circle cx="1344.5" cy="522.5" r="3.5" fill="#F5F6F8" fill-opacity="0.6"/>
<circle cx="1344.5" cy="539.5" r="3.5" fill="#F5F6F8" fill-opacity="0.6"/>
<circle cx="1344.5" cy="556.5" r="3.5" fill="#F5F6F8" fill-opacity="0.6"/>
<circle cx="1344.5" cy="573.5" r="3.5" fill="#F5F6F8" fill-opacity="0.6"/>
<circle cx="1344.5" cy="590.5" r="3.5" fill="#F5F6F8" fill-opacity="0.6"/>
<circle cx="1344.5" cy="607.5" r="3.5" fill="#F5F6F8" fill-opacity="0.6"/>
<circle cx="1361.5" cy="522.5" r="3.5" fill="#F5F6F8" fill-opacity="0.6"/>
<circle cx="1361.5" cy="539.5" r="3.5" fill="#F5F6F8" fill-opacity="0.6"/>
<circle cx="1361.5" cy="556.5" r="3.5" fill="#F5F6F8" fill-opacity="0.6"/>
<circle cx="1361.5" cy="573.5" r="3.5" fill="#F5F6F8" fill-opacity="0.6"/>
<circle cx="1361.5" cy="590.5" r="3.5" fill="#F5F6F8" fill-opacity="0.6"/>
<circle cx="1361.5" cy="607.5" r="3.5" fill="#F5F6F8" fill-opacity="0.6"/>
<circle cx="1378.5" cy="522.5" r="3.5" fill="#F5F6F8" fill-opacity="0.6"/>
<circle cx="1378.5" cy="539.5" r="3.5" fill="#F5F6F8" fill-opacity="0.6"/>
<circle cx="1378.5" cy="556.5" r="3.5" fill="#F5F6F8" fill-opacity="0.6"/>
<circle cx="1378.5" cy="573.5" r="3.5" fill="#F5F6F8" fill-opacity="0.6"/>
<circle cx="1378.5" cy="590.5" r="3.5" fill="#F5F6F8" fill-opacity="0.6"/>
<circle cx="1378.5" cy="607.5" r="3.5" fill="#F5F6F8" fill-opacity="0.6"/>
<circle cx="1395.5" cy="522.5" r="3.5" fill="#F5F6F8" fill-opacity="0.6"/>
<circle cx="1395.5" cy="539.5" r="3.5" fill="#F5F6F8" fill-opacity="0.6"/>
<circle cx="1395.5" cy="556.5" r="3.5" fill="#F5F6F8" fill-opacity="0.6"/>
<circle cx="1395.5" cy="573.5" r="3.5" fill="#F5F6F8" fill-opacity="0.6"/>
<circle cx="1395.5" cy="590.5" r="3.5" fill="#F5F6F8" fill-opacity="0.6"/>
<circle cx="1395.5" cy="607.5" r="3.5" fill="#F5F6F8" fill-opacity="0.6"/>
<circle cx="1412.5" cy="522.5" r="3.5" fill="#F5F6F8" fill-opacity="0.6"/>
<circle cx="1412.5" cy="539.5" r="3.5" fill="#F5F6F8" fill-opacity="0.6"/>
<circle cx="1412.5" cy="556.5" r="3.5" fill="#F5F6F8" fill-opacity="0.6"/>
<circle cx="1412.5" cy="573.5" r="3.5" fill="#F5F6F8" fill-opacity="0.6"/>
<circle cx="1412.5" cy="590.5" r="3.5" fill="#F5F6F8" fill-opacity="0.6"/>
<circle cx="1412.5" cy="607.5" r="3.5" fill="#F5F6F8" fill-opacity="0.6"/>
<circle cx="1429.5" cy="522.5" r="3.5" fill="#F5F6F8" fill-opacity="0.6"/>
<circle cx="1429.5" cy="539.5" r="3.5" fill="#F5F6F8" fill-opacity="0.6"/>
<circle cx="1429.5" cy="556.5" r="3.5" fill="#F5F6F8" fill-opacity="0.6"/>
<circle cx="1429.5" cy="573.5" r="3.5" fill="#F5F6F8" fill-opacity="0.6"/>
<circle cx="1429.5" cy="590.5" r="3.5" fill="#F5F6F8" fill-opacity="0.6"/>
<circle cx="1429.5" cy="607.5" r="3.5" fill="#F5F6F8" fill-opacity="0.6"/>
<circle cx="1552" cy="285" r="237.5" stroke="#F5F6F8" stroke-opacity="0.3" stroke-width="25"/>
</g>
</svg>
