<svg width="673" height="613" viewBox="0 0 673 613" fill="none" xmlns="http://www.w3.org/2000/svg">
<mask id="mask0_1_875" style="mask-type:alpha" maskUnits="userSpaceOnUse" x="0" y="0" width="673" height="613">
<rect width="673" height="613" fill="#C4C4C4"/>
</mask>
<g mask="url(#mask0_1_875)">
<path d="M104.184 414.532C41.9823 508.827 47.7751 588.038 169.457 613H674.931V0H57.1093C-118.228 169.823 268.575 165.322 104.184 414.532Z" fill="#FF971D"/>
<ellipse cx="260.22" cy="198.5" rx="3.37948" ry="3.5" fill="#F5F6F8" fill-opacity="0.6"/>
<ellipse cx="260.22" cy="215.5" rx="3.37948" ry="3.5" fill="#F5F6F8" fill-opacity="0.6"/>
<ellipse cx="260.22" cy="232.5" rx="3.37948" ry="3.5" fill="#F5F6F8" fill-opacity="0.6"/>
<ellipse cx="260.22" cy="249.5" rx="3.37948" ry="3.5" fill="#F5F6F8" fill-opacity="0.6"/>
<ellipse cx="260.22" cy="266.5" rx="3.37948" ry="3.5" fill="#F5F6F8" fill-opacity="0.6"/>
<ellipse cx="260.22" cy="283.5" rx="3.37948" ry="3.5" fill="#F5F6F8" fill-opacity="0.6"/>
<ellipse cx="276.635" cy="198.5" rx="3.37948" ry="3.5" fill="#F5F6F8" fill-opacity="0.6"/>
<ellipse cx="276.635" cy="215.5" rx="3.37948" ry="3.5" fill="#F5F6F8" fill-opacity="0.6"/>
<ellipse cx="276.635" cy="232.5" rx="3.37948" ry="3.5" fill="#F5F6F8" fill-opacity="0.6"/>
<ellipse cx="276.635" cy="249.5" rx="3.37948" ry="3.5" fill="#F5F6F8" fill-opacity="0.6"/>
<ellipse cx="276.635" cy="266.5" rx="3.37948" ry="3.5" fill="#F5F6F8" fill-opacity="0.6"/>
<ellipse cx="276.635" cy="283.5" rx="3.37948" ry="3.5" fill="#F5F6F8" fill-opacity="0.6"/>
<ellipse cx="293.049" cy="198.5" rx="3.37948" ry="3.5" fill="#F5F6F8" fill-opacity="0.6"/>
<ellipse cx="293.049" cy="215.5" rx="3.37948" ry="3.5" fill="#F5F6F8" fill-opacity="0.6"/>
<ellipse cx="293.049" cy="232.5" rx="3.37948" ry="3.5" fill="#F5F6F8" fill-opacity="0.6"/>
<ellipse cx="293.049" cy="249.5" rx="3.37948" ry="3.5" fill="#F5F6F8" fill-opacity="0.6"/>
<ellipse cx="293.049" cy="266.5" rx="3.37948" ry="3.5" fill="#F5F6F8" fill-opacity="0.6"/>
<ellipse cx="293.049" cy="283.5" rx="3.37948" ry="3.5" fill="#F5F6F8" fill-opacity="0.6"/>
<ellipse cx="309.464" cy="198.5" rx="3.37948" ry="3.5" fill="#F5F6F8" fill-opacity="0.6"/>
<ellipse cx="309.464" cy="215.5" rx="3.37948" ry="3.5" fill="#F5F6F8" fill-opacity="0.6"/>
<ellipse cx="309.464" cy="232.5" rx="3.37948" ry="3.5" fill="#F5F6F8" fill-opacity="0.6"/>
<ellipse cx="309.464" cy="249.5" rx="3.37948" ry="3.5" fill="#F5F6F8" fill-opacity="0.6"/>
<ellipse cx="309.464" cy="266.5" rx="3.37948" ry="3.5" fill="#F5F6F8" fill-opacity="0.6"/>
<ellipse cx="309.464" cy="283.5" rx="3.37948" ry="3.5" fill="#F5F6F8" fill-opacity="0.6"/>
<ellipse cx="325.879" cy="198.5" rx="3.37948" ry="3.5" fill="#F5F6F8" fill-opacity="0.6"/>
<ellipse cx="325.879" cy="215.5" rx="3.37948" ry="3.5" fill="#F5F6F8" fill-opacity="0.6"/>
<ellipse cx="325.879" cy="232.5" rx="3.37948" ry="3.5" fill="#F5F6F8" fill-opacity="0.6"/>
<ellipse cx="325.879" cy="249.5" rx="3.37948" ry="3.5" fill="#F5F6F8" fill-opacity="0.6"/>
<ellipse cx="325.879" cy="266.5" rx="3.37948" ry="3.5" fill="#F5F6F8" fill-opacity="0.6"/>
<ellipse cx="325.879" cy="283.5" rx="3.37948" ry="3.5" fill="#F5F6F8" fill-opacity="0.6"/>
<ellipse cx="342.293" cy="198.5" rx="3.37948" ry="3.5" fill="#F5F6F8" fill-opacity="0.6"/>
<ellipse cx="342.293" cy="215.5" rx="3.37948" ry="3.5" fill="#F5F6F8" fill-opacity="0.6"/>
<ellipse cx="342.293" cy="232.5" rx="3.37948" ry="3.5" fill="#F5F6F8" fill-opacity="0.6"/>
<ellipse cx="342.293" cy="249.5" rx="3.37948" ry="3.5" fill="#F5F6F8" fill-opacity="0.6"/>
<ellipse cx="342.293" cy="266.5" rx="3.37948" ry="3.5" fill="#F5F6F8" fill-opacity="0.6"/>
<ellipse cx="342.293" cy="283.5" rx="3.37948" ry="3.5" fill="#F5F6F8" fill-opacity="0.6"/>
<ellipse cx="358.708" cy="198.5" rx="3.37948" ry="3.5" fill="#F5F6F8" fill-opacity="0.6"/>
<ellipse cx="358.708" cy="215.5" rx="3.37948" ry="3.5" fill="#F5F6F8" fill-opacity="0.6"/>
<ellipse cx="358.708" cy="232.5" rx="3.37948" ry="3.5" fill="#F5F6F8" fill-opacity="0.6"/>
<ellipse cx="358.708" cy="249.5" rx="3.37948" ry="3.5" fill="#F5F6F8" fill-opacity="0.6"/>
<ellipse cx="358.708" cy="266.5" rx="3.37948" ry="3.5" fill="#F5F6F8" fill-opacity="0.6"/>
<ellipse cx="358.708" cy="283.5" rx="3.37948" ry="3.5" fill="#F5F6F8" fill-opacity="0.6"/>
<ellipse cx="564.374" cy="524.5" rx="3.37948" ry="3.5" fill="#F5F6F8" fill-opacity="0.6"/>
<ellipse cx="564.374" cy="541.5" rx="3.37948" ry="3.5" fill="#F5F6F8" fill-opacity="0.6"/>
<ellipse cx="564.374" cy="558.5" rx="3.37948" ry="3.5" fill="#F5F6F8" fill-opacity="0.6"/>
<ellipse cx="564.374" cy="575.5" rx="3.37948" ry="3.5" fill="#F5F6F8" fill-opacity="0.6"/>
<ellipse cx="564.374" cy="592.5" rx="3.37948" ry="3.5" fill="#F5F6F8" fill-opacity="0.6"/>
<ellipse cx="564.374" cy="609.5" rx="3.37948" ry="3.5" fill="#F5F6F8" fill-opacity="0.6"/>
<ellipse cx="580.788" cy="524.5" rx="3.37948" ry="3.5" fill="#F5F6F8" fill-opacity="0.6"/>
<ellipse cx="580.788" cy="541.5" rx="3.37948" ry="3.5" fill="#F5F6F8" fill-opacity="0.6"/>
<ellipse cx="580.788" cy="558.5" rx="3.37948" ry="3.5" fill="#F5F6F8" fill-opacity="0.6"/>
<ellipse cx="580.788" cy="575.5" rx="3.37948" ry="3.5" fill="#F5F6F8" fill-opacity="0.6"/>
<ellipse cx="580.788" cy="592.5" rx="3.37948" ry="3.5" fill="#F5F6F8" fill-opacity="0.6"/>
<ellipse cx="580.788" cy="609.5" rx="3.37948" ry="3.5" fill="#F5F6F8" fill-opacity="0.6"/>
<ellipse cx="597.203" cy="524.5" rx="3.37948" ry="3.5" fill="#F5F6F8" fill-opacity="0.6"/>
<ellipse cx="597.203" cy="541.5" rx="3.37948" ry="3.5" fill="#F5F6F8" fill-opacity="0.6"/>
<ellipse cx="597.203" cy="558.5" rx="3.37948" ry="3.5" fill="#F5F6F8" fill-opacity="0.6"/>
<ellipse cx="597.203" cy="575.5" rx="3.37948" ry="3.5" fill="#F5F6F8" fill-opacity="0.6"/>
<ellipse cx="597.203" cy="592.5" rx="3.37948" ry="3.5" fill="#F5F6F8" fill-opacity="0.6"/>
<ellipse cx="597.203" cy="609.5" rx="3.37948" ry="3.5" fill="#F5F6F8" fill-opacity="0.6"/>
<ellipse cx="613.618" cy="524.5" rx="3.37948" ry="3.5" fill="#F5F6F8" fill-opacity="0.6"/>
<ellipse cx="613.618" cy="541.5" rx="3.37948" ry="3.5" fill="#F5F6F8" fill-opacity="0.6"/>
<ellipse cx="613.618" cy="558.5" rx="3.37948" ry="3.5" fill="#F5F6F8" fill-opacity="0.6"/>
<ellipse cx="613.618" cy="575.5" rx="3.37948" ry="3.5" fill="#F5F6F8" fill-opacity="0.6"/>
<ellipse cx="613.618" cy="592.5" rx="3.37948" ry="3.5" fill="#F5F6F8" fill-opacity="0.6"/>
<ellipse cx="613.618" cy="609.5" rx="3.37948" ry="3.5" fill="#F5F6F8" fill-opacity="0.6"/>
<ellipse cx="630.032" cy="524.5" rx="3.37948" ry="3.5" fill="#F5F6F8" fill-opacity="0.6"/>
<ellipse cx="630.032" cy="541.5" rx="3.37948" ry="3.5" fill="#F5F6F8" fill-opacity="0.6"/>
<ellipse cx="630.032" cy="558.5" rx="3.37948" ry="3.5" fill="#F5F6F8" fill-opacity="0.6"/>
<ellipse cx="630.032" cy="575.5" rx="3.37948" ry="3.5" fill="#F5F6F8" fill-opacity="0.6"/>
<ellipse cx="630.032" cy="592.5" rx="3.37948" ry="3.5" fill="#F5F6F8" fill-opacity="0.6"/>
<ellipse cx="630.032" cy="609.5" rx="3.37948" ry="3.5" fill="#F5F6F8" fill-opacity="0.6"/>
<ellipse cx="646.447" cy="524.5" rx="3.37948" ry="3.5" fill="#F5F6F8" fill-opacity="0.6"/>
<ellipse cx="646.447" cy="541.5" rx="3.37948" ry="3.5" fill="#F5F6F8" fill-opacity="0.6"/>
<ellipse cx="646.447" cy="558.5" rx="3.37948" ry="3.5" fill="#F5F6F8" fill-opacity="0.6"/>
<ellipse cx="646.447" cy="575.5" rx="3.37948" ry="3.5" fill="#F5F6F8" fill-opacity="0.6"/>
<ellipse cx="646.447" cy="592.5" rx="3.37948" ry="3.5" fill="#F5F6F8" fill-opacity="0.6"/>
<ellipse cx="646.447" cy="609.5" rx="3.37948" ry="3.5" fill="#F5F6F8" fill-opacity="0.6"/>
<ellipse cx="662.862" cy="524.5" rx="3.37948" ry="3.5" fill="#F5F6F8" fill-opacity="0.6"/>
<ellipse cx="662.862" cy="541.5" rx="3.37948" ry="3.5" fill="#F5F6F8" fill-opacity="0.6"/>
<ellipse cx="662.862" cy="558.5" rx="3.37948" ry="3.5" fill="#F5F6F8" fill-opacity="0.6"/>
<ellipse cx="662.862" cy="575.5" rx="3.37948" ry="3.5" fill="#F5F6F8" fill-opacity="0.6"/>
<ellipse cx="662.862" cy="592.5" rx="3.37948" ry="3.5" fill="#F5F6F8" fill-opacity="0.6"/>
<ellipse cx="662.862" cy="609.5" rx="3.37948" ry="3.5" fill="#F5F6F8" fill-opacity="0.6"/>
<path d="M1010.04 287C1010.04 418.584 907.148 524.5 781.143 524.5C655.139 524.5 552.252 418.584 552.252 287C552.252 155.416 655.139 49.5 781.143 49.5C907.148 49.5 1010.04 155.416 1010.04 287Z" stroke="#F5F6F8" stroke-opacity="0.3" stroke-width="25"/>
</g>
</svg>
