<svg width="238" height="16" viewBox="0 0 238 16" fill="none" xmlns="http://www.w3.org/2000/svg">
<path d="M5.95333 2.31116L7.7929 6.03794L11.9067 6.63923L8.92999 9.53849L9.63248 13.6344L5.95333 11.6996L2.27417 13.6344L2.97666 9.53849L0 6.63923L4.11375 6.03794L5.95333 2.31116Z" fill="#FF971D"/>
<path d="M24.8599 2.31116L26.6995 6.03794L30.8133 6.63923L27.8366 9.53849L28.5391 13.6344L24.8599 11.6996L21.1808 13.6344L21.8833 9.53849L18.9066 6.63923L23.0204 6.03794L24.8599 2.31116Z" fill="#FF971D"/>
<path d="M43.7667 2.31116L45.6063 6.03794L49.72 6.63923L46.7433 9.53849L47.4458 13.6344L43.7667 11.6996L40.0875 13.6344L40.79 9.53849L37.8134 6.63923L41.9271 6.03794L43.7667 2.31116Z" fill="#FF971D"/>
<path d="M62.6733 2.31116L64.5129 6.03794L68.6266 6.63923L65.65 9.53849L66.3525 13.6344L62.6733 11.6996L58.9941 13.6344L59.6966 9.53849L56.72 6.63923L60.8337 6.03794L62.6733 2.31116Z" fill="#FF971D"/>
<path d="M81.5799 2.31116L83.4195 6.03794L87.5332 6.63923L84.5566 9.53849L85.2591 13.6344L81.5799 11.6996L77.9008 13.6344L78.6033 9.53849L75.6266 6.63923L79.7403 6.03794L81.5799 2.31116Z" fill="#DEDEDE"/>
<path d="M117.949 13.9728C117.843 13.9728 117.757 13.9408 117.693 13.8768C117.629 13.8128 117.597 13.7274 117.597 13.6208V4.08478L114.733 6.29278C114.648 6.34611 114.573 6.37278 114.509 6.37278C114.403 6.37278 114.312 6.32478 114.237 6.22878L114.061 6.00478C114.008 5.93011 113.981 5.85544 113.981 5.78078C113.981 5.67411 114.029 5.58344 114.125 5.50878L117.533 2.88478C117.64 2.81011 117.779 2.77278 117.949 2.77278H118.253C118.36 2.77278 118.445 2.80478 118.509 2.86878C118.573 2.93278 118.605 3.01811 118.605 3.12478V13.6208C118.605 13.7274 118.573 13.8128 118.509 13.8768C118.445 13.9408 118.36 13.9728 118.253 13.9728H117.949ZM121.108 15.1728C121.023 15.1728 120.959 15.1408 120.916 15.0768C120.874 15.0128 120.863 14.9328 120.884 14.8368L121.188 12.9168C121.22 12.6288 121.354 12.4848 121.588 12.4848H122.308C122.383 12.4848 122.442 12.5114 122.484 12.5648C122.527 12.6181 122.548 12.6768 122.548 12.7408C122.548 12.8368 122.527 12.9328 122.484 13.0288L121.796 14.8368C121.743 14.9541 121.684 15.0394 121.62 15.0928C121.567 15.1461 121.487 15.1728 121.38 15.1728H121.108ZM126.235 13.9728C126.139 13.9728 126.059 13.9408 125.995 13.8768C125.942 13.8021 125.915 13.7168 125.915 13.6208C125.915 13.5568 125.942 13.4874 125.995 13.4128L128.523 9.86078C128.203 9.94611 127.856 9.98878 127.483 9.98878C126.672 9.98878 125.979 9.81278 125.403 9.46078C124.838 9.10878 124.411 8.65011 124.123 8.08478C123.835 7.51944 123.691 6.92744 123.691 6.30878C123.691 5.69011 123.835 5.09811 124.123 4.53278C124.411 3.96744 124.838 3.50878 125.403 3.15678C125.979 2.79411 126.672 2.61278 127.483 2.61278C128.294 2.61278 128.987 2.79411 129.563 3.15678C130.139 3.50878 130.571 3.96744 130.859 4.53278C131.147 5.09811 131.291 5.69011 131.291 6.30878C131.291 6.86344 131.2 7.35411 131.019 7.78078C130.838 8.20744 130.614 8.61278 130.347 8.99678L127.051 13.6528C127.04 13.6741 127.008 13.7168 126.955 13.7808C126.912 13.8341 126.854 13.8821 126.779 13.9248C126.715 13.9568 126.64 13.9728 126.555 13.9728H126.235ZM127.483 9.02878C127.984 9.02878 128.448 8.91678 128.875 8.69278C129.302 8.46878 129.643 8.14878 129.899 7.73278C130.155 7.31678 130.283 6.84211 130.283 6.30878C130.283 5.76478 130.155 5.28478 129.899 4.86878C129.643 4.45278 129.302 4.13278 128.875 3.90878C128.448 3.68478 127.984 3.57278 127.483 3.57278C126.982 3.57278 126.518 3.68478 126.091 3.90878C125.664 4.13278 125.323 4.45278 125.067 4.86878C124.822 5.28478 124.699 5.76478 124.699 6.30878C124.699 6.85278 124.822 7.33278 125.067 7.74878C125.323 8.15411 125.664 8.46878 126.091 8.69278C126.518 8.91678 126.982 9.02878 127.483 9.02878ZM137.151 14.1328C136.405 14.1328 135.727 14.0048 135.119 13.7488C134.522 13.4928 134.047 13.1141 133.695 12.6128C133.343 12.1114 133.167 11.5141 133.167 10.8208C133.167 10.1594 133.327 9.58878 133.647 9.10878C133.967 8.62878 134.41 8.25544 134.975 7.98878C134.527 7.74344 134.181 7.41811 133.935 7.01278C133.69 6.59678 133.567 6.11144 133.567 5.55678C133.567 4.62878 133.903 3.90878 134.575 3.39678C135.258 2.87411 136.117 2.61278 137.151 2.61278C138.186 2.61278 139.039 2.87411 139.711 3.39678C140.394 3.90878 140.735 4.62878 140.735 5.55678C140.735 6.11144 140.607 6.59678 140.351 7.01278C140.106 7.41811 139.765 7.74344 139.327 7.98878C139.893 8.25544 140.335 8.62878 140.655 9.10878C140.975 9.58878 141.135 10.1594 141.135 10.8208C141.135 11.5141 140.959 12.1114 140.607 12.6128C140.255 13.1141 139.775 13.4928 139.167 13.7488C138.57 14.0048 137.898 14.1328 137.151 14.1328ZM137.151 7.52478C137.877 7.50344 138.485 7.31678 138.975 6.96478C139.477 6.61278 139.727 6.14344 139.727 5.55678C139.727 4.94878 139.482 4.46878 138.991 4.11678C138.501 3.75411 137.887 3.57278 137.151 3.57278C136.415 3.57278 135.802 3.75411 135.311 4.11678C134.821 4.46878 134.575 4.94878 134.575 5.55678C134.575 6.16478 134.821 6.64478 135.311 6.99678C135.802 7.34878 136.415 7.52478 137.151 7.52478ZM137.151 13.1728C137.994 13.1728 138.698 12.9594 139.263 12.5328C139.839 12.1061 140.127 11.5354 140.127 10.8208C140.127 10.1168 139.845 9.55144 139.279 9.12478C138.714 8.69811 138.005 8.48478 137.151 8.48478C136.298 8.48478 135.589 8.69811 135.023 9.12478C134.458 9.55144 134.175 10.1168 134.175 10.8208C134.175 11.5354 134.458 12.1061 135.023 12.5328C135.599 12.9594 136.309 13.1728 137.151 13.1728ZM147.074 14.1328C146.327 14.1328 145.65 14.0048 145.042 13.7488C144.445 13.4928 143.97 13.1141 143.618 12.6128C143.266 12.1114 143.09 11.5141 143.09 10.8208C143.09 10.1594 143.25 9.58878 143.57 9.10878C143.89 8.62878 144.333 8.25544 144.898 7.98878C144.45 7.74344 144.103 7.41811 143.858 7.01278C143.613 6.59678 143.49 6.11144 143.49 5.55678C143.49 4.62878 143.826 3.90878 144.498 3.39678C145.181 2.87411 146.039 2.61278 147.074 2.61278C148.109 2.61278 148.962 2.87411 149.634 3.39678C150.317 3.90878 150.658 4.62878 150.658 5.55678C150.658 6.11144 150.53 6.59678 150.274 7.01278C150.029 7.41811 149.687 7.74344 149.25 7.98878C149.815 8.25544 150.258 8.62878 150.578 9.10878C150.898 9.58878 151.058 10.1594 151.058 10.8208C151.058 11.5141 150.882 12.1114 150.53 12.6128C150.178 13.1141 149.698 13.4928 149.09 13.7488C148.493 14.0048 147.821 14.1328 147.074 14.1328ZM147.074 7.52478C147.799 7.50344 148.407 7.31678 148.898 6.96478C149.399 6.61278 149.65 6.14344 149.65 5.55678C149.65 4.94878 149.405 4.46878 148.914 4.11678C148.423 3.75411 147.81 3.57278 147.074 3.57278C146.338 3.57278 145.725 3.75411 145.234 4.11678C144.743 4.46878 144.498 4.94878 144.498 5.55678C144.498 6.16478 144.743 6.64478 145.234 6.99678C145.725 7.34878 146.338 7.52478 147.074 7.52478ZM147.074 13.1728C147.917 13.1728 148.621 12.9594 149.186 12.5328C149.762 12.1061 150.05 11.5354 150.05 10.8208C150.05 10.1168 149.767 9.55144 149.202 9.12478C148.637 8.69811 147.927 8.48478 147.074 8.48478C146.221 8.48478 145.511 8.69811 144.946 9.12478C144.381 9.55144 144.098 10.1168 144.098 10.8208C144.098 11.5354 144.381 12.1061 144.946 12.5328C145.522 12.9594 146.231 13.1728 147.074 13.1728ZM153.033 15.1728C152.948 15.1728 152.884 15.1408 152.841 15.0768C152.798 15.0128 152.788 14.9328 152.809 14.8368L153.113 12.9168C153.145 12.6288 153.278 12.4848 153.513 12.4848H154.233C154.308 12.4848 154.366 12.5114 154.409 12.5648C154.452 12.6181 154.473 12.6768 154.473 12.7408C154.473 12.8368 154.452 12.9328 154.409 13.0288L153.721 14.8368C153.668 14.9541 153.609 15.0394 153.545 15.0928C153.492 15.1461 153.412 15.1728 153.305 15.1728H153.033ZM156.878 13.9728C156.771 13.9728 156.686 13.9408 156.622 13.8768C156.558 13.8128 156.526 13.7274 156.526 13.6208V13.3808C156.526 13.1674 156.659 12.9434 156.926 12.7088L161.07 8.56478C161.657 8.02078 162.051 7.56211 162.254 7.18878C162.457 6.81544 162.558 6.37278 162.558 5.86078C162.558 5.14611 162.35 4.58611 161.934 4.18078C161.529 3.77544 160.947 3.57278 160.19 3.57278C159.475 3.57278 158.905 3.78078 158.478 4.19678C158.051 4.61278 157.795 5.17278 157.71 5.87678C157.699 5.99411 157.651 6.08478 157.566 6.14878C157.491 6.21278 157.417 6.24478 157.342 6.24478H157.022C156.915 6.24478 156.83 6.21811 156.766 6.16478C156.713 6.10078 156.686 6.02611 156.686 5.94078C156.707 5.41811 156.846 4.90078 157.102 4.38878C157.358 3.87678 157.747 3.45544 158.27 3.12478C158.793 2.78344 159.433 2.61278 160.19 2.61278C161.331 2.61278 162.179 2.92211 162.734 3.54078C163.289 4.15944 163.566 4.93278 163.566 5.86078C163.566 6.50078 163.427 7.07678 163.15 7.58878C162.873 8.10078 162.43 8.63944 161.822 9.20478L158.078 13.0128H163.438C163.555 13.0128 163.646 13.0448 163.71 13.1088C163.774 13.1728 163.806 13.2634 163.806 13.3808V13.6208C163.806 13.7274 163.769 13.8128 163.694 13.8768C163.63 13.9408 163.545 13.9728 163.438 13.9728H156.878ZM169.623 14.1328C168.876 14.1328 168.199 14.0048 167.591 13.7488C166.994 13.4928 166.519 13.1141 166.167 12.6128C165.815 12.1114 165.639 11.5141 165.639 10.8208C165.639 10.1594 165.799 9.58878 166.119 9.10878C166.439 8.62878 166.882 8.25544 167.447 7.98878C166.999 7.74344 166.652 7.41811 166.407 7.01278C166.162 6.59678 166.039 6.11144 166.039 5.55678C166.039 4.62878 166.375 3.90878 167.047 3.39678C167.73 2.87411 168.588 2.61278 169.623 2.61278C170.658 2.61278 171.511 2.87411 172.183 3.39678C172.866 3.90878 173.207 4.62878 173.207 5.55678C173.207 6.11144 173.079 6.59678 172.823 7.01278C172.578 7.41811 172.236 7.74344 171.799 7.98878C172.364 8.25544 172.807 8.62878 173.127 9.10878C173.447 9.58878 173.607 10.1594 173.607 10.8208C173.607 11.5141 173.431 12.1114 173.079 12.6128C172.727 13.1141 172.247 13.4928 171.639 13.7488C171.042 14.0048 170.37 14.1328 169.623 14.1328ZM169.623 7.52478C170.348 7.50344 170.956 7.31678 171.447 6.96478C171.948 6.61278 172.199 6.14344 172.199 5.55678C172.199 4.94878 171.954 4.46878 171.463 4.11678C170.972 3.75411 170.359 3.57278 169.623 3.57278C168.887 3.57278 168.274 3.75411 167.783 4.11678C167.292 4.46878 167.047 4.94878 167.047 5.55678C167.047 6.16478 167.292 6.64478 167.783 6.99678C168.274 7.34878 168.887 7.52478 169.623 7.52478ZM169.623 13.1728C170.466 13.1728 171.17 12.9594 171.735 12.5328C172.311 12.1061 172.599 11.5354 172.599 10.8208C172.599 10.1168 172.316 9.55144 171.751 9.12478C171.186 8.69811 170.476 8.48478 169.623 8.48478C168.77 8.48478 168.06 8.69811 167.495 9.12478C166.93 9.55144 166.647 10.1168 166.647 10.8208C166.647 11.5354 166.93 12.1061 167.495 12.5328C168.071 12.9594 168.78 13.1728 169.623 13.1728ZM179.546 14.1328C178.799 14.1328 178.122 14.0048 177.514 13.7488C176.916 13.4928 176.442 13.1141 176.09 12.6128C175.738 12.1114 175.562 11.5141 175.562 10.8208C175.562 10.1594 175.722 9.58878 176.042 9.10878C176.362 8.62878 176.804 8.25544 177.37 7.98878C176.922 7.74344 176.575 7.41811 176.33 7.01278C176.084 6.59678 175.962 6.11144 175.962 5.55678C175.962 4.62878 176.298 3.90878 176.97 3.39678C177.652 2.87411 178.511 2.61278 179.546 2.61278C180.58 2.61278 181.434 2.87411 182.106 3.39678C182.788 3.90878 183.13 4.62878 183.13 5.55678C183.13 6.11144 183.002 6.59678 182.746 7.01278C182.5 7.41811 182.159 7.74344 181.722 7.98878C182.287 8.25544 182.73 8.62878 183.05 9.10878C183.37 9.58878 183.53 10.1594 183.53 10.8208C183.53 11.5141 183.354 12.1114 183.002 12.6128C182.65 13.1141 182.17 13.4928 181.562 13.7488C180.964 14.0048 180.292 14.1328 179.546 14.1328ZM179.546 7.52478C180.271 7.50344 180.879 7.31678 181.37 6.96478C181.871 6.61278 182.122 6.14344 182.122 5.55678C182.122 4.94878 181.876 4.46878 181.386 4.11678C180.895 3.75411 180.282 3.57278 179.546 3.57278C178.81 3.57278 178.196 3.75411 177.706 4.11678C177.215 4.46878 176.97 4.94878 176.97 5.55678C176.97 6.16478 177.215 6.64478 177.706 6.99678C178.196 7.34878 178.81 7.52478 179.546 7.52478ZM179.546 13.1728C180.388 13.1728 181.092 12.9594 181.658 12.5328C182.234 12.1061 182.522 11.5354 182.522 10.8208C182.522 10.1168 182.239 9.55144 181.674 9.12478C181.108 8.69811 180.399 8.48478 179.546 8.48478C178.692 8.48478 177.983 8.69811 177.418 9.12478C176.852 9.55144 176.57 10.1168 176.57 10.8208C176.57 11.5354 176.852 12.1061 177.418 12.5328C177.994 12.9594 178.703 13.1728 179.546 13.1728ZM192.404 13.9728C192.105 13.9728 191.902 13.8394 191.796 13.5728L188.852 6.14878L188.82 5.97278C188.82 5.88744 188.852 5.81278 188.916 5.74878C188.98 5.68478 189.054 5.65278 189.14 5.65278H189.476C189.572 5.65278 189.646 5.67944 189.7 5.73278C189.764 5.78611 189.806 5.83944 189.828 5.89278L192.532 12.8048L195.236 5.89278C195.257 5.83944 195.294 5.78611 195.348 5.73278C195.412 5.67944 195.492 5.65278 195.588 5.65278H195.924C196.009 5.65278 196.084 5.68478 196.148 5.74878C196.212 5.81278 196.244 5.88744 196.244 5.97278L196.212 6.14878L193.268 13.5728C193.161 13.8394 192.958 13.9728 192.66 13.9728H192.404ZM201.037 14.1328C199.927 14.1328 199.063 13.7968 198.445 13.1248C197.837 12.4421 197.517 11.5621 197.485 10.4848L197.469 9.81278L197.485 9.14078C197.517 8.06344 197.837 7.18878 198.445 6.51678C199.063 5.83411 199.927 5.49278 201.037 5.49278C202.146 5.49278 203.005 5.83411 203.613 6.51678C204.231 7.18878 204.557 8.06344 204.589 9.14078C204.599 9.24744 204.605 9.47144 204.605 9.81278C204.605 10.1541 204.599 10.3781 204.589 10.4848C204.557 11.5621 204.231 12.4421 203.613 13.1248C203.005 13.7968 202.146 14.1328 201.037 14.1328ZM201.037 13.2048C201.794 13.2048 202.402 12.9648 202.861 12.4848C203.33 11.9941 203.581 11.3008 203.613 10.4048C203.623 10.2981 203.629 10.1008 203.629 9.81278C203.629 9.52478 203.623 9.32744 203.613 9.22078C203.581 8.32478 203.33 7.63678 202.861 7.15678C202.402 6.66611 201.794 6.42078 201.037 6.42078C200.279 6.42078 199.666 6.66611 199.197 7.15678C198.738 7.63678 198.493 8.32478 198.461 9.22078L198.445 9.81278L198.461 10.4048C198.493 11.3008 198.738 11.9941 199.197 12.4848C199.666 12.9648 200.279 13.2048 201.037 13.2048ZM209.529 13.9728C208.739 13.9728 208.179 13.7381 207.849 13.2688C207.518 12.7888 207.353 12.1328 207.353 11.3008V6.58078H206.105C205.998 6.58078 205.913 6.54878 205.849 6.48478C205.785 6.42078 205.753 6.33544 205.753 6.22878V6.00478C205.753 5.89811 205.785 5.81278 205.849 5.74878C205.913 5.68478 205.998 5.65278 206.105 5.65278H207.353V2.96478C207.353 2.85811 207.385 2.77278 207.449 2.70878C207.513 2.64478 207.598 2.61278 207.705 2.61278H207.977C208.083 2.61278 208.169 2.64478 208.233 2.70878C208.297 2.77278 208.329 2.85811 208.329 2.96478V5.65278H210.313C210.419 5.65278 210.505 5.68478 210.569 5.74878C210.633 5.81278 210.665 5.89811 210.665 6.00478V6.22878C210.665 6.33544 210.633 6.42078 210.569 6.48478C210.505 6.54878 210.419 6.58078 210.313 6.58078H208.329V11.2368C208.329 11.8341 208.425 12.2874 208.617 12.5968C208.819 12.8954 209.15 13.0448 209.609 13.0448H210.473C210.579 13.0448 210.665 13.0768 210.729 13.1408C210.793 13.2048 210.825 13.2901 210.825 13.3968V13.6208C210.825 13.7274 210.793 13.8128 210.729 13.8768C210.665 13.9408 210.579 13.9728 210.473 13.9728H209.529ZM215.599 14.1328C214.585 14.1328 213.769 13.8021 213.151 13.1408C212.532 12.4688 212.18 11.5728 212.095 10.4528L212.079 9.81278L212.095 9.17278C212.18 8.06344 212.527 7.17278 213.135 6.50078C213.753 5.82878 214.575 5.49278 215.599 5.49278C216.708 5.49278 217.572 5.86078 218.191 6.59678C218.82 7.33278 219.135 8.34078 219.135 9.62078V9.86078C219.135 9.96744 219.097 10.0528 219.023 10.1168C218.959 10.1808 218.873 10.2128 218.767 10.2128H213.071V10.3728C213.092 10.8741 213.204 11.3434 213.407 11.7808C213.62 12.2074 213.913 12.5541 214.287 12.8208C214.66 13.0768 215.097 13.2048 215.599 13.2048C216.185 13.2048 216.66 13.0928 217.023 12.8688C217.396 12.6341 217.663 12.3994 217.823 12.1648C217.919 12.0368 217.988 11.9568 218.031 11.9248C218.084 11.8928 218.175 11.8768 218.303 11.8768H218.559C218.655 11.8768 218.735 11.9034 218.799 11.9568C218.863 12.0101 218.895 12.0794 218.895 12.1648C218.895 12.3888 218.751 12.6608 218.463 12.9808C218.185 13.2901 217.796 13.5621 217.295 13.7968C216.793 14.0208 216.228 14.1328 215.599 14.1328ZM218.159 9.31678V9.25278C218.159 8.43144 217.924 7.75411 217.455 7.22078C216.996 6.68744 216.377 6.42078 215.599 6.42078C214.82 6.42078 214.201 6.68744 213.743 7.22078C213.295 7.75411 213.071 8.43144 213.071 9.25278V9.31678H218.159ZM223.917 14.1328C223.224 14.1328 222.637 14.0154 222.157 13.7808C221.688 13.5461 221.331 13.2794 221.085 12.9808C220.851 12.6821 220.733 12.4421 220.733 12.2608C220.733 12.1648 220.771 12.0901 220.845 12.0368C220.92 11.9728 221 11.9408 221.085 11.9408H221.325C221.4 11.9408 221.459 11.9568 221.501 11.9888C221.555 12.0101 221.613 12.0634 221.677 12.1488C221.912 12.4794 222.195 12.7408 222.525 12.9328C222.867 13.1141 223.331 13.2048 223.917 13.2048C224.579 13.2048 225.112 13.0821 225.517 12.8368C225.923 12.5808 226.125 12.2181 226.125 11.7488C226.125 11.4608 226.04 11.2261 225.869 11.0448C225.709 10.8634 225.443 10.7088 225.069 10.5808C224.707 10.4421 224.163 10.2874 223.437 10.1168C222.488 9.90344 221.837 9.61011 221.485 9.23678C221.144 8.86344 220.973 8.38878 220.973 7.81278C220.973 7.41811 221.08 7.04478 221.293 6.69278C221.517 6.34078 221.843 6.05278 222.269 5.82878C222.707 5.60478 223.229 5.49278 223.837 5.49278C224.477 5.49278 225.016 5.60478 225.453 5.82878C225.901 6.04211 226.232 6.29278 226.445 6.58078C226.669 6.86878 226.781 7.10344 226.781 7.28478C226.781 7.38078 226.744 7.46078 226.669 7.52478C226.605 7.57811 226.525 7.60478 226.429 7.60478H226.189C226.04 7.60478 225.923 7.53544 225.837 7.39678C225.624 7.07678 225.379 6.83678 225.101 6.67678C224.835 6.50611 224.413 6.42078 223.837 6.42078C223.219 6.42078 222.749 6.54878 222.429 6.80478C222.109 7.06078 221.949 7.39678 221.949 7.81278C221.949 8.06878 222.013 8.28211 222.141 8.45278C222.269 8.62344 222.509 8.78344 222.861 8.93278C223.213 9.07144 223.725 9.21544 224.397 9.36478C225.389 9.58878 226.088 9.88744 226.493 10.2608C226.899 10.6341 227.101 11.1301 227.101 11.7488C227.101 12.1861 226.979 12.5861 226.733 12.9488C226.488 13.3114 226.125 13.5994 225.645 13.8128C225.165 14.0261 224.589 14.1328 223.917 14.1328Z" fill="black" fill-opacity="0.3"/>
</svg>
