<svg width="88" height="12" viewBox="0 0 88 12" fill="none" xmlns="http://www.w3.org/2000/svg">
<path d="M5.95333 0.354004L7.7929 4.08079L11.9067 4.68207L8.92999 7.58134L9.63248 11.6772L5.95333 9.7424L2.27417 11.6772L2.97666 7.58134L0 4.68207L4.11375 4.08079L5.95333 0.354004Z" fill="#FF971D"/>
<path d="M24.8599 0.354004L26.6995 4.08079L30.8133 4.68207L27.8366 7.58134L28.5391 11.6772L24.8599 9.7424L21.1808 11.6772L21.8833 7.58134L18.9066 4.68207L23.0204 4.08079L24.8599 0.354004Z" fill="#FF971D"/>
<path d="M43.7667 0.354004L45.6063 4.08079L49.72 4.68207L46.7433 7.58134L47.4458 11.6772L43.7667 9.7424L40.0875 11.6772L40.79 7.58134L37.8134 4.68207L41.9271 4.08079L43.7667 0.354004Z" fill="#FF971D"/>
<path d="M62.6733 0.354004L64.5129 4.08079L68.6266 4.68207L65.65 7.58134L66.3525 11.6772L62.6733 9.7424L58.9941 11.6772L59.6966 7.58134L56.72 4.68207L60.8337 4.08079L62.6733 0.354004Z" fill="#FF971D"/>
<path d="M81.5799 0.354004L83.4195 4.08079L87.5332 4.68207L84.5566 7.58134L85.2591 11.6772L81.5799 9.7424L77.9008 11.6772L78.6033 7.58134L75.6266 4.68207L79.7403 4.08079L81.5799 0.354004Z" fill="#DEDEDE"/>
</svg>
